<?xml version="1.0" encoding="iso-8859-1"?>
<!-- Generator: Adobe Illustrator 19.0.0, SVG Export Plug-In . SVG Version: 6.00 Build 0)  -->
<svg version="1.1" id="Layer_1" xmlns="http://www.w3.org/2000/svg" xmlns:xlink="http://www.w3.org/1999/xlink" x="0px" y="0px"
	 viewBox="0 0 472.615 472.615" style="enable-background:new 0 0 472.615 472.615;" xml:space="preserve">
<g>
	<g>
		<polygon points="472.615,393.846 472.615,344.586 0,344.586 0,393.846 147.692,393.846 147.692,452.923 108.308,452.923 
			108.308,472.615 364.308,472.615 364.308,452.923 324.923,452.923 324.923,393.846 		"/>
	</g>
</g>
<g>
	<g>
		<polygon points="104.271,108.308 125.44,177.231 268.603,177.231 291.545,108.308 		"/>
	</g>
</g>
<g>
	<g>
		<path d="M0,0v324.894h472.615V0H0z M282.782,196.923H124.258l-9.846,19.692h161.28v19.692h-11.618
			c1.182,3.051,1.772,6.4,1.772,9.846c0,16.246-13.292,29.538-29.538,29.538s-29.538-13.292-29.538-29.538
			c0-3.446,0.591-6.795,1.772-9.846h-42.929c1.182,3.051,1.772,6.4,1.772,9.846c0,16.246-13.292,29.538-29.538,29.538
			s-29.538-13.292-29.538-29.538c0-3.446,0.591-6.795,1.772-9.846H82.511l25.009-50.117L70.892,66.756L46.08,58.585l6.302-18.709
			l34.265,11.423l11.52,37.317h220.751L282.782,196.923z M424.033,252.547l-13.922,13.923l-22.625-22.627l-25.924,25.925
			l-24.669-90.442l90.443,24.664l-25.928,25.93L424.033,252.547z"/>
	</g>
</g>
<g>
</g>
<g>
</g>
<g>
</g>
<g>
</g>
<g>
</g>
<g>
</g>
<g>
</g>
<g>
</g>
<g>
</g>
<g>
</g>
<g>
</g>
<g>
</g>
<g>
</g>
<g>
</g>
<g>
</g>
</svg>
