<?xml version="1.0" encoding="iso-8859-1"?>
<!-- Generator: Adobe Illustrator 19.1.0, SVG Export Plug-In . SVG Version: 6.00 Build 0)  -->
<svg version="1.1" id="Capa_1" xmlns="http://www.w3.org/2000/svg" xmlns:xlink="http://www.w3.org/1999/xlink" x="0px" y="0px"
	 viewBox="0 0 488.355 488.355" style="enable-background:new 0 0 488.355 488.355;" xml:space="preserve">
<g>
	<g>
		<path d="M442.033,175.755l-309.9-28.9c-1.7-0.2-3.3-0.2-4.9-0.1l-12.4-60c-0.3-1.2-0.6-2.4-1.1-3.4c-1.9-4.8-5.9-8.7-11.2-10.3
			l-59.1-17.4c-9.1-2.7-18.7,2.5-21.4,11.7c-2.7,9.1,2.5,18.7,11.7,21.4l49.3,14.5l59.3,285.8c1.1,8.4,8.3,14.9,17.1,14.9l255-0.1
			c9.5,0,17.2-7.7,17.2-17.2s-7.7-17.2-17.2-17.2l-240.9,0.1l-8.2-39.5h253.6c13.3,0,24.8-8.8,27.2-20.9l20.5-103.3
			C469.333,191.055,458.133,177.255,442.033,175.755z"/>
		<circle cx="208.433" cy="453.955" r="34.4"/>
		<circle cx="372.833" cy="453.955" r="34.4"/>
		<path d="M178.933,133.555l3.9,0.4l12.2,1.1l50.2,4.7l1.8-19.3c2.5-26.1,25.6-45.2,51.7-42.8c26.1,2.5,45.2,25.6,42.8,51.7
			l-1.8,19.3l50.2,4.7l16,1.5c5.9,0.6,11.2-3.8,11.7-9.7l1.6-17.2c0.6-5.9-3.8-11.2-9.7-11.7l-16-1.5c-1.3-13.3-5.3-25.9-11.5-37.2
			l12.4-10.3c4.6-3.8,5.2-10.6,1.4-15.2l-11-13.3c-3.8-4.6-10.6-5.2-15.2-1.4l-12.5,10.2c-10-8.1-21.6-14.4-34.4-18.2l1.5-16
			c0.6-5.9-3.8-11.2-9.7-11.7l-17.2-1.6c-5.9-0.6-11.2,3.8-11.7,9.7l-1.5,16c-13.3,1.3-25.9,5.3-37.2,11.5l-10.3-12.4
			c-3.8-4.6-10.6-5.2-15.2-1.4l-13.3,11c-4.6,3.8-5.2,10.6-1.4,15.2l10.3,12.4c-8.1,10-14.4,21.6-18.2,34.4l-16-1.5
			c-5.9-0.6-11.2,3.8-11.7,9.7l-1.6,17.2C168.633,127.755,173.033,132.955,178.933,133.555z"/>
	</g>
</g>
<g>
</g>
<g>
</g>
<g>
</g>
<g>
</g>
<g>
</g>
<g>
</g>
<g>
</g>
<g>
</g>
<g>
</g>
<g>
</g>
<g>
</g>
<g>
</g>
<g>
</g>
<g>
</g>
<g>
</g>
</svg>
